<svg width="29" height="30" viewBox="0 0 29 30" fill="none" xmlns="http://www.w3.org/2000/svg">
<g filter="url(#filter0_d_268_52)">
<path d="M9.92609 2.00101H18.3061C21.9461 2.00101 24.1161 4.17101 24.1161 7.81101V16.181C24.1161 19.831 21.9461 22.001 18.3061 22.001H9.93609C6.29609 22.001 4.12609 19.831 4.12609 16.191V7.81101C4.11609 4.17101 6.28609 2.00101 9.92609 2.00101ZM11.3261 12.531L14.8561 16.061C15.0061 16.211 15.1961 16.281 15.3861 16.281C15.5761 16.281 15.7661 16.211 15.9161 16.061C16.2061 15.771 16.2061 15.291 15.9161 15.001L12.9161 12.001L15.9161 9.00101C16.2061 8.71101 16.2061 8.23101 15.9161 7.94101C15.6261 7.65101 15.1461 7.65101 14.8561 7.94101L11.3261 11.471C11.0261 11.761 11.0261 12.241 11.3261 12.531Z" fill="#8B8BAA"/>
</g>
<defs>
<filter id="filter0_d_268_52" x="0.126099" y="2.00101" width="27.99" height="28" filterUnits="userSpaceOnUse" color-interpolation-filters="sRGB">
<feFlood flood-opacity="0" result="BackgroundImageFix"/>
<feColorMatrix in="SourceAlpha" type="matrix" values="0 0 0 0 0 0 0 0 0 0 0 0 0 0 0 0 0 0 127 0" result="hardAlpha"/>
<feOffset dy="4"/>
<feGaussianBlur stdDeviation="2"/>
<feComposite in2="hardAlpha" operator="out"/>
<feColorMatrix type="matrix" values="0 0 0 0 0 0 0 0 0 0 0 0 0 0 0 0 0 0 0.25 0"/>
<feBlend mode="normal" in2="BackgroundImageFix" result="effect1_dropShadow_268_52"/>
<feBlend mode="normal" in="SourceGraphic" in2="effect1_dropShadow_268_52" result="shape"/>
</filter>
</defs>
</svg>
