<svg width="24" height="24" viewBox="0 0 24 24" fill="none" xmlns="http://www.w3.org/2000/svg">
<path d="M7.81 2.00101H16.19C19.83 2.00101 22 4.17101 22 7.81101V16.181C22 19.831 19.83 22.001 16.19 22.001H7.82C4.18 22.001 2.01 19.831 2.01 16.191V7.81101C2 4.17101 4.17 2.00101 7.81 2.00101ZM9.21 12.531L12.74 16.061C12.89 16.211 13.08 16.281 13.27 16.281C13.46 16.281 13.65 16.211 13.8 16.061C14.09 15.771 14.09 15.291 13.8 15.001L10.8 12.001L13.8 9.00101C14.09 8.71101 14.09 8.23101 13.8 7.94101C13.51 7.65101 13.03 7.65101 12.74 7.94101L9.21 11.471C8.91 11.761 8.91 12.241 9.21 12.531Z" fill="white"/>
</svg>
