<svg width="821" height="821" viewBox="0 0 821 821" fill="none" xmlns="http://www.w3.org/2000/svg">
<path fill-rule="evenodd" clip-rule="evenodd" d="M202.321 481.94V612.536H0V617.536H0.572205L0.572204 618.679H202.321V821H207.321V618.679H339.631V821H344.631V618.679L476.941 618.679V821H481.941V618.679H612.535V821H617.535V820.428H618.679V618.679H821V617.536V613.679V612.536H618.679V481.94H821V476.94H618.679V344.63H821V339.63H618.679V207.321H821V202.321H618.679V0H617.535H613.679H612.535V202.321H481.941V0H476.941V202.321H344.631V0H339.631V202.321H207.321V0H202.321V202.321H0V207.321H202.321V339.63H0V344.63H202.321V476.94H0V481.94H202.321ZM207.321 207.321V339.63H339.631V207.321H207.321ZM344.631 207.321V339.63L476.941 339.63V207.321H344.631ZM481.941 207.321V339.63H612.535V207.321H481.941ZM481.941 481.94H612.535V612.536H481.941V481.94ZM344.631 481.94L476.941 481.94V612.536L344.631 612.536V481.94ZM207.321 481.94H339.631V612.536H207.321V481.94ZM612.535 344.63V476.94H481.941V344.63H612.535ZM476.941 344.63V476.94L344.631 476.94V344.63L476.941 344.63ZM339.631 344.63V476.94H207.321V344.63H339.631Z" fill="url(#paint0_radial_118_1077)" fill-opacity="0.1"/>
<defs>
<radialGradient id="paint0_radial_118_1077" cx="0" cy="0" r="1" gradientUnits="userSpaceOnUse" gradientTransform="translate(436.976 386.886) rotate(102.579) scale(468.741)">
<stop stop-color="#ECECEC"/>
<stop offset="0.814594" stop-color="#E0E0E0" stop-opacity="0"/>
</radialGradient>
</defs>
</svg>
