<svg width="20" height="20" viewBox="0 0 20 20" fill="none" xmlns="http://www.w3.org/2000/svg">
<path d="M9.99999 18.9583C5.05832 18.9583 1.04166 14.9416 1.04166 9.99996C1.04166 5.05829 5.05832 1.04163 9.99999 1.04163C14.9417 1.04163 18.9583 5.05829 18.9583 9.99996C18.9583 14.9416 14.9417 18.9583 9.99999 18.9583ZM9.99999 2.29163C5.74999 2.29163 2.29166 5.74996 2.29166 9.99996C2.29166 14.25 5.74999 17.7083 9.99999 17.7083C14.25 17.7083 17.7083 14.25 17.7083 9.99996C17.7083 5.74996 14.25 2.29163 9.99999 2.29163Z" fill="#B3B3D0"/>
<path d="M13.0917 13.275C12.9833 13.275 12.875 13.25 12.775 13.1833L10.1917 11.6416C9.55001 11.2583 9.07501 10.4166 9.07501 9.67497V6.2583C9.07501 5.91663 9.35835 5.6333 9.70001 5.6333C10.0417 5.6333 10.325 5.91663 10.325 6.2583V9.67497C10.325 9.97497 10.575 10.4166 10.8333 10.5666L13.4167 12.1083C13.7167 12.2833 13.8083 12.6666 13.6333 12.9666C13.5083 13.1666 13.3 13.275 13.0917 13.275Z" fill="#B3B3D0"/>
</svg>
