<svg width="20" height="20" viewBox="0 0 20 20" fill="none" xmlns="http://www.w3.org/2000/svg">
<path d="M10.8333 18.9583H4.16666C2.14999 18.9583 1.04166 17.85 1.04166 15.8333V9.16663C1.04166 7.14996 2.14999 6.04163 4.16666 6.04163H8.33332C8.67499 6.04163 8.95832 6.32496 8.95832 6.66663V15.8333C8.95832 17.15 9.51666 17.7083 10.8333 17.7083C11.175 17.7083 11.4583 17.9916 11.4583 18.3333C11.4583 18.675 11.175 18.9583 10.8333 18.9583ZM4.16666 7.29163C2.84999 7.29163 2.29166 7.84996 2.29166 9.16663V15.8333C2.29166 17.15 2.84999 17.7083 4.16666 17.7083H8.16665C7.86665 17.2166 7.70832 16.5916 7.70832 15.8333V7.29163H4.16666Z" fill="#B3B3D0"/>
<path d="M8.33332 7.29171H4.16666C3.82499 7.29171 3.54166 7.00837 3.54166 6.66671V5.00004C3.54166 3.73337 4.56666 2.70837 5.83332 2.70837H8.42498C8.61664 2.70837 8.8 2.80002 8.91667 2.95002C9.03333 3.10836 9.07498 3.30838 9.02498 3.49171C8.97498 3.67504 8.95832 3.88337 8.95832 4.16671V6.66671C8.95832 7.00837 8.67499 7.29171 8.33332 7.29171ZM4.79166 6.04171H7.70832V4.16671C7.70832 4.09171 7.70832 4.02504 7.70832 3.95837H5.83332C5.25832 3.95837 4.79166 4.42504 4.79166 5.00004V6.04171Z" fill="#B3B3D0"/>
<path d="M11.6667 11.4583C11.325 11.4583 11.0417 11.175 11.0417 10.8333V6.66663C11.0417 6.32496 11.325 6.04163 11.6667 6.04163C12.0083 6.04163 12.2917 6.32496 12.2917 6.66663V10.8333C12.2917 11.175 12.0083 11.4583 11.6667 11.4583Z" fill="#B3B3D0"/>
<path d="M15 11.4583C14.6583 11.4583 14.375 11.175 14.375 10.8333V6.66663C14.375 6.32496 14.6583 6.04163 15 6.04163C15.3417 6.04163 15.625 6.32496 15.625 6.66663V10.8333C15.625 11.175 15.3417 11.4583 15 11.4583Z" fill="#B3B3D0"/>
<path d="M15 18.9583H11.6667C11.325 18.9583 11.0417 18.675 11.0417 18.3333V15C11.0417 14.2 11.7 13.5416 12.5 13.5416H14.1667C14.9667 13.5416 15.625 14.2 15.625 15V18.3333C15.625 18.675 15.3417 18.9583 15 18.9583ZM12.2917 17.7083H14.375V15C14.375 14.8833 14.2833 14.7916 14.1667 14.7916H12.5C12.3833 14.7916 12.2917 14.8833 12.2917 15V17.7083Z" fill="#B3B3D0"/>
<path d="M5 14.7917C4.65833 14.7917 4.375 14.5084 4.375 14.1667V10.8334C4.375 10.4917 4.65833 10.2084 5 10.2084C5.34167 10.2084 5.625 10.4917 5.625 10.8334V14.1667C5.625 14.5084 5.34167 14.7917 5 14.7917Z" fill="#B3B3D0"/>
<path d="M15.8333 18.9583H10.8333C8.81668 18.9583 7.70834 17.85 7.70834 15.8333V4.16663C7.70834 2.14996 8.81668 1.04163 10.8333 1.04163H15.8333C17.85 1.04163 18.9583 2.14996 18.9583 4.16663V15.8333C18.9583 17.85 17.85 18.9583 15.8333 18.9583ZM10.8333 2.29163C9.51668 2.29163 8.95834 2.84996 8.95834 4.16663V15.8333C8.95834 17.15 9.51668 17.7083 10.8333 17.7083H15.8333C17.15 17.7083 17.7083 17.15 17.7083 15.8333V4.16663C17.7083 2.84996 17.15 2.29163 15.8333 2.29163H10.8333Z" fill="#B3B3D0"/>
</svg>
