<svg width="280" height="232" viewBox="0 0 280 232" fill="none" xmlns="http://www.w3.org/2000/svg">
<path d="M82.4508 144.406H24.2166C25.2099 86.4201 36.6333 76.8593 72.2691 55.7509C76.3666 53.2676 77.7324 48.0526 75.2491 43.8309C72.8899 39.7334 67.5508 38.3676 63.4533 40.8509C21.4849 65.6843 6.83325 80.8326 6.83325 152.973V219.899C6.83325 241.132 24.0924 258.267 45.2008 258.267H82.4508C104.304 258.267 120.818 241.753 120.818 219.899V182.649C120.818 160.92 104.304 144.406 82.4508 144.406Z" fill="url(#paint0_linear_328_120)"/>
<path d="M216.799 144.406H158.565C159.558 86.4201 170.982 76.8593 206.618 55.7509C210.715 53.2676 212.081 48.0526 209.598 43.8309C207.114 39.7334 201.899 38.3676 197.678 40.8509C155.709 65.6843 141.058 80.8326 141.058 153.098V220.023C141.058 241.256 158.317 258.391 179.425 258.391H216.675C238.528 258.391 255.043 241.877 255.043 220.023V182.773C255.167 160.92 238.653 144.406 216.799 144.406Z" fill="url(#paint1_linear_328_120)"/>
<defs>
<linearGradient id="paint0_linear_328_120" x1="63.8258" y1="39.6089" x2="63.8258" y2="258.267" gradientUnits="userSpaceOnUse">
<stop stop-color="#2A2A37"/>
<stop offset="1" stop-color="#2A2A37" stop-opacity="0"/>
</linearGradient>
<linearGradient id="paint1_linear_328_120" x1="198.05" y1="39.6089" x2="198.05" y2="258.391" gradientUnits="userSpaceOnUse">
<stop stop-color="#2A2A37"/>
<stop offset="1" stop-color="#2A2A37" stop-opacity="0"/>
</linearGradient>
</defs>
</svg>
