<svg width="71" height="70" viewBox="0 0 71 70" fill="none" xmlns="http://www.w3.org/2000/svg">
<path d="M14.4742 48.7715C5.69798 54.3048 0 62.2 0 67.1023C0 71.5226 4.63273 70.1263 11.9776 67.9125C18.2117 66.0335 26.3997 63.5656 35.3672 63.5656C44.3347 63.5656 52.5227 66.0335 58.7568 67.9125C66.1017 70.1263 70.7344 71.5226 70.7344 67.1023C70.7344 62.2 65.0364 54.3048 56.2602 48.7715C50.6694 53.6396 43.3626 56.5875 35.3672 56.5875C27.3718 56.5875 20.065 53.6396 14.4742 48.7715Z" fill="url(#paint0_linear_118_1417)"/>
<path d="M28.2938 24.757C32.2003 24.757 35.3672 21.5902 35.3672 17.6836C35.3672 16.4115 35.0314 15.2179 34.4437 14.1865C34.748 14.1603 35.056 14.1469 35.3672 14.1469C41.227 14.1469 45.9774 18.8972 45.9774 24.757C45.9774 30.6169 41.227 35.3672 35.3672 35.3672C29.5074 35.3672 24.757 30.6169 24.757 24.757C24.757 24.4459 24.7704 24.1379 24.7967 23.8335C25.8281 24.4213 27.0217 24.757 28.2938 24.757Z" fill="url(#paint1_linear_118_1417)"/>
<path fill-rule="evenodd" clip-rule="evenodd" d="M35.3672 42.4406C45.1336 42.4406 53.0508 34.5234 53.0508 24.757C53.0508 14.9907 45.1336 7.07344 35.3672 7.07344C25.6008 7.07344 17.6836 14.9907 17.6836 24.757C17.6836 34.5234 25.6008 42.4406 35.3672 42.4406ZM35.3672 49.5141C49.0401 49.5141 60.1242 38.43 60.1242 24.757C60.1242 11.0841 49.0401 0 35.3672 0C21.6943 0 10.6102 11.0841 10.6102 24.757C10.6102 38.43 21.6943 49.5141 35.3672 49.5141Z" fill="url(#paint2_linear_118_1417)"/>
<defs>
<linearGradient id="paint0_linear_118_1417" x1="35.3672" y1="0" x2="35.3672" y2="70" gradientUnits="userSpaceOnUse">
<stop stop-color="#8B8BAA"/>
<stop offset="1" stop-color="#8B8BAA" stop-opacity="0"/>
</linearGradient>
<linearGradient id="paint1_linear_118_1417" x1="35.3672" y1="0" x2="35.3672" y2="70" gradientUnits="userSpaceOnUse">
<stop stop-color="#8B8BAA"/>
<stop offset="1" stop-color="#8B8BAA" stop-opacity="0"/>
</linearGradient>
<linearGradient id="paint2_linear_118_1417" x1="35.3672" y1="0" x2="35.3672" y2="70" gradientUnits="userSpaceOnUse">
<stop stop-color="#8B8BAA"/>
<stop offset="1" stop-color="#8B8BAA" stop-opacity="0"/>
</linearGradient>
</defs>
</svg>
