<svg width="60" height="70" viewBox="0 0 60 70" fill="none" xmlns="http://www.w3.org/2000/svg">
<path d="M57.0356 17.8955C59.5942 19.3727 60.4709 22.6444 58.9936 25.203L57.2105 28.2916C55.7332 30.8502 52.4616 31.7268 49.9029 30.2496L49.792 30.1856V30.3138C49.792 33.2682 47.3969 35.6633 44.4425 35.6633H40.8761C39.7525 35.6633 38.7098 35.3168 37.8489 34.7249C39.7072 32.4535 41.0031 29.7041 41.5241 26.6893C41.8599 26.7277 42.2014 26.7474 42.5475 26.7474C47.4716 26.7474 51.4634 22.7557 51.4634 17.8316C51.4634 12.9076 47.4716 8.91582 42.5475 8.91582C40.2317 8.91582 38.1221 9.79873 36.537 11.2463C34.3429 9.10095 31.5841 7.5306 28.5045 6.77897C30.1148 4.68538 33.0661 4.05669 35.4159 5.41336L35.5267 5.47731V5.34949C35.5267 2.39505 37.9217 0 40.8761 0H44.4425C47.3969 0 49.792 2.39505 49.792 5.34949V5.47752L49.9028 5.4135C52.4615 3.93628 55.7332 4.81293 57.2104 7.37155L58.9935 10.4601C60.4708 13.0187 59.5941 16.2904 57.0355 17.7676L56.9248 17.8315L57.0356 17.8955Z" fill="url(#paint0_linear_118_1420)"/>
<path d="M41.7698 23.125C41.6599 19.7495 40.5896 16.6168 38.8234 13.9913C39.7865 13.0572 41.0999 12.4821 42.5475 12.4821C45.502 12.4821 47.897 14.8772 47.897 17.8316C47.897 20.7861 45.502 23.1811 42.5475 23.1811C42.2834 23.1811 42.0237 23.162 41.7698 23.125Z" fill="url(#paint1_linear_118_1420)"/>
<path d="M3.99682 50.732C7.55428 45.5327 13.8547 41.6222 24.3603 41.6222C34.866 41.6222 41.1664 45.5327 44.7239 50.732C48.1621 55.757 48.7097 61.5165 48.7206 64.7035C48.7316 67.9082 46.169 70 43.5416 70H5.17904C2.55169 70 -0.0109596 67.9082 3.52528e-05 64.7035C0.0109694 61.5165 0.558589 55.757 3.99682 50.732Z" fill="url(#paint2_linear_118_1420)"/>
<path d="M24.3602 36.8983C31.4925 36.8983 37.2744 31.1164 37.2744 23.9841C37.2744 16.8518 31.4925 11.0699 24.3602 11.0699C17.2279 11.0699 11.446 16.8518 11.446 23.9841C11.446 31.1164 17.2279 36.8983 24.3602 36.8983Z" fill="url(#paint3_linear_118_1420)"/>
<defs>
<linearGradient id="paint0_linear_118_1420" x1="29.8556" y1="0" x2="29.8556" y2="70" gradientUnits="userSpaceOnUse">
<stop stop-color="#8B8BAA"/>
<stop offset="1" stop-color="#8B8BAA" stop-opacity="0"/>
</linearGradient>
<linearGradient id="paint1_linear_118_1420" x1="29.8556" y1="0" x2="29.8556" y2="70" gradientUnits="userSpaceOnUse">
<stop stop-color="#8B8BAA"/>
<stop offset="1" stop-color="#8B8BAA" stop-opacity="0"/>
</linearGradient>
<linearGradient id="paint2_linear_118_1420" x1="29.8556" y1="0" x2="29.8556" y2="70" gradientUnits="userSpaceOnUse">
<stop stop-color="#8B8BAA"/>
<stop offset="1" stop-color="#8B8BAA" stop-opacity="0"/>
</linearGradient>
<linearGradient id="paint3_linear_118_1420" x1="29.8556" y1="0" x2="29.8556" y2="70" gradientUnits="userSpaceOnUse">
<stop stop-color="#8B8BAA"/>
<stop offset="1" stop-color="#8B8BAA" stop-opacity="0"/>
</linearGradient>
</defs>
</svg>
