<svg width="70" height="70" viewBox="0 0 70 70" fill="none" xmlns="http://www.w3.org/2000/svg">
<path d="M38.5101 2.99661C37.8755 -0.99889 32.1245 -0.998849 31.4899 2.99661L28.7886 20.0044L14.8522 9.88816C11.5782 7.51162 7.51169 11.5783 9.88816 14.8522L20.0044 28.7886L2.99661 31.4899C-0.99889 32.1245 -0.998849 37.8755 2.99661 38.5101L20.0044 41.2114L9.88816 55.1478C7.51163 58.4218 11.5783 62.4883 14.8522 60.1118L28.7886 49.9956L31.4899 67.0034C32.1245 70.9989 37.8755 70.9988 38.5101 67.0034L41.2114 49.9956L55.1478 60.1118C58.4218 62.4884 62.4883 58.4217 60.1118 55.1478L49.9956 41.2114L67.0034 38.5101C70.9989 37.8755 70.9988 32.1245 67.0034 31.4899L49.9956 28.7886L60.1118 14.8522C62.4884 11.5782 58.4217 7.51167 55.1478 9.88816L41.2114 20.0044L38.5101 2.99661Z" fill="url(#paint0_linear_118_1421)"/>
<defs>
<linearGradient id="paint0_linear_118_1421" x1="35" y1="0" x2="35" y2="70" gradientUnits="userSpaceOnUse">
<stop stop-color="#8B8BAA"/>
<stop offset="1" stop-color="#8B8BAA" stop-opacity="0"/>
</linearGradient>
</defs>
</svg>
