<svg width="70" height="70" viewBox="0 0 70 70" fill="none" xmlns="http://www.w3.org/2000/svg">
<path fill-rule="evenodd" clip-rule="evenodd" d="M4.81507 2.91669C2.15719 2.91669 0.00256348 5.07983 0.00256348 7.74821V23.8533C0.00256348 26.5217 2.15719 28.6848 4.81507 28.6848H17.2474L24.6671 34.6441C25.7175 35.4877 27.2734 34.7369 27.2734 33.3865V28.6848H28.0997C30.3012 28.6848 32.0859 26.8931 32.0859 24.6828V7.74821C32.0859 5.07983 29.9313 2.91669 27.2734 2.91669H4.81507ZM6.41923 9.35872C5.53328 9.35872 4.81507 10.0798 4.81507 10.9692C4.81507 11.8587 5.53328 12.5797 6.41923 12.5797H22.4609C23.3469 12.5797 24.0651 11.8587 24.0651 10.9692C24.0651 10.0798 23.3469 9.35872 22.4609 9.35872H6.41923ZM6.41923 15.8008C5.53328 15.8008 4.81507 16.5218 4.81507 17.4113C4.81507 18.3007 5.53328 19.0218 6.41923 19.0218H16.0442C16.9302 19.0218 17.6484 18.3007 17.6484 17.4113C17.6484 16.5218 16.9302 15.8008 16.0442 15.8008H6.41923Z" fill="url(#paint0_linear_118_1419)"/>
<path d="M45.3793 43.75C35.9874 43.75 31.716 46.9654 28.5357 51.2404C25.4619 55.3722 24.9724 60.1079 24.9626 62.7284C24.9528 65.3634 27.2437 67.0834 29.5925 67.0834H61.1659C63.5148 67.0834 65.8057 65.3634 65.7959 62.7284C65.7861 60.1079 65.2966 55.3722 62.2228 51.2404C59.0425 46.9654 54.7711 43.75 45.3793 43.75Z" fill="url(#paint1_linear_118_1419)"/>
<path d="M45.3793 40.8334C51.0172 40.8334 55.5876 36.2629 55.5876 30.625C55.5876 24.9871 51.0172 20.4167 45.3793 20.4167C39.7414 20.4167 35.1709 24.9871 35.1709 30.625C35.1709 36.2629 39.7414 40.8334 45.3793 40.8334Z" fill="url(#paint2_linear_118_1419)"/>
<defs>
<linearGradient id="paint0_linear_118_1419" x1="32.8992" y1="2.91669" x2="32.8992" y2="67.0834" gradientUnits="userSpaceOnUse">
<stop stop-color="#8B8BAA"/>
<stop offset="1" stop-color="#8B8BAA" stop-opacity="0"/>
</linearGradient>
<linearGradient id="paint1_linear_118_1419" x1="32.8992" y1="2.91669" x2="32.8992" y2="67.0834" gradientUnits="userSpaceOnUse">
<stop stop-color="#8B8BAA"/>
<stop offset="1" stop-color="#8B8BAA" stop-opacity="0"/>
</linearGradient>
<linearGradient id="paint2_linear_118_1419" x1="32.8992" y1="2.91669" x2="32.8992" y2="67.0834" gradientUnits="userSpaceOnUse">
<stop stop-color="#8B8BAA"/>
<stop offset="1" stop-color="#8B8BAA" stop-opacity="0"/>
</linearGradient>
</defs>
</svg>
